<svg width="12" height="12" viewBox="0 0 12 12" fill="none" xmlns="http://www.w3.org/2000/svg">
<g clip-path="url(#clip0_80_2718)">
<path d="M8 10.5V9.5C8 8.96957 7.78929 8.46086 7.41421 8.08579C7.03914 7.71071 6.53043 7.5 6 7.5H3C2.46957 7.5 1.96086 7.71071 1.58579 8.08579C1.21071 8.46086 1 8.96957 1 9.5V10.5" stroke="#6A7282" stroke-linecap="round" stroke-linejoin="round"/>
<path d="M8 1.56445C8.42888 1.67564 8.8087 1.92609 9.07984 2.27648C9.35098 2.62688 9.4981 3.0574 9.4981 3.50045C9.4981 3.94351 9.35098 4.37402 9.07984 4.72442C8.8087 5.07482 8.42888 5.32527 8 5.43645" stroke="#6A7282" stroke-linecap="round" stroke-linejoin="round"/>
<path d="M11 10.5004V9.50043C10.9997 9.05729 10.8522 8.62682 10.5807 8.27659C10.3092 7.92636 9.92906 7.67621 9.5 7.56543" stroke="#6A7282" stroke-linecap="round" stroke-linejoin="round"/>
<path d="M4.5 5.5C5.60457 5.5 6.5 4.60457 6.5 3.5C6.5 2.39543 5.60457 1.5 4.5 1.5C3.39543 1.5 2.5 2.39543 2.5 3.5C2.5 4.60457 3.39543 5.5 4.5 5.5Z" stroke="#6A7282" stroke-linecap="round" stroke-linejoin="round"/>
</g>
<defs>
<clipPath id="clip0_80_2718">
<rect width="12" height="12" fill="white"/>
</clipPath>
</defs>
</svg>
