<svg width="16" height="16" viewBox="0 0 16 16" fill="none" xmlns="http://www.w3.org/2000/svg">
<path d="M7.68333 1.5296C7.71255 1.47058 7.75768 1.42089 7.81364 1.38615C7.86959 1.35142 7.93414 1.33301 8 1.33301C8.06586 1.33301 8.13041 1.35142 8.18637 1.38615C8.24232 1.42089 8.28745 1.47058 8.31667 1.5296L9.85667 4.64894C9.95812 4.85425 10.1079 5.03188 10.2931 5.16657C10.4783 5.30127 10.6934 5.38901 10.92 5.42227L14.364 5.92627C14.4293 5.93573 14.4906 5.96325 14.541 6.00574C14.5914 6.04822 14.629 6.10397 14.6493 6.16667C14.6697 6.22938 14.6722 6.29654 14.6564 6.36056C14.6406 6.42458 14.6072 6.4829 14.56 6.52894L12.0693 8.95427C11.9051 9.11434 11.7822 9.31192 11.7112 9.53002C11.6403 9.74812 11.6234 9.9802 11.662 10.2063L12.25 13.6329C12.2615 13.6982 12.2545 13.7653 12.2297 13.8267C12.2049 13.8881 12.1633 13.9413 12.1097 13.9803C12.0561 14.0192 11.9927 14.0423 11.9266 14.0469C11.8605 14.0515 11.7945 14.0374 11.736 14.0063L8.65733 12.3876C8.45448 12.2811 8.22879 12.2254 7.99967 12.2254C7.77055 12.2254 7.54486 12.2811 7.342 12.3876L4.264 14.0063C4.20555 14.0372 4.1396 14.0511 4.07363 14.0464C4.00767 14.0418 3.94435 14.0186 3.89086 13.9797C3.83738 13.9409 3.79589 13.8877 3.7711 13.8264C3.74632 13.7651 3.73924 13.6981 3.75067 13.6329L4.338 10.2069C4.3768 9.98076 4.35999 9.74854 4.28903 9.5303C4.21806 9.31207 4.09507 9.11437 3.93067 8.95427L1.44 6.5296C1.3924 6.48363 1.35866 6.4252 1.34264 6.36099C1.32662 6.29677 1.32896 6.22935 1.34939 6.1664C1.36981 6.10345 1.40751 6.0475 1.45819 6.00493C1.50886 5.96235 1.57047 5.93487 1.636 5.9256L5.07933 5.42227C5.30617 5.38927 5.52159 5.30164 5.70706 5.16693C5.89252 5.03221 6.04247 4.85445 6.144 4.64894L7.68333 1.5296Z" fill="#FDC700" stroke="#FDC700" stroke-width="1.33333" stroke-linecap="round" stroke-linejoin="round"/>
</svg>
