<svg width="38" height="32" viewBox="0 0 38 32" fill="none" xmlns="http://www.w3.org/2000/svg">
<mask id="path-1-inside-1_123_2168" fill="white">
<path d="M0 8C0 3.58172 3.58172 0 8 0H29.3333C33.7516 0 37.3333 3.58172 37.3333 8V24C37.3333 28.4183 33.7516 32 29.3333 32H8C3.58172 32 0 28.4183 0 24V8Z"/>
</mask>
<path d="M0 8C0 3.58172 3.58172 0 8 0H29.3333C33.7516 0 37.3333 3.58172 37.3333 8V24C37.3333 28.4183 33.7516 32 29.3333 32H8C3.58172 32 0 28.4183 0 24V8Z" fill="white"/>
<path d="M8 0V0.666667H29.3333V0V-0.666667H8V0ZM37.3333 8H36.6667V24H37.3333H38V8H37.3333ZM29.3333 32V31.3333H8V32V32.6667H29.3333V32ZM0 24H0.666667V8H0H-0.666667V24H0ZM8 32V31.3333C3.94991 31.3333 0.666667 28.0501 0.666667 24H0H-0.666667C-0.666667 28.7865 3.21353 32.6667 8 32.6667V32ZM37.3333 24H36.6667C36.6667 28.0501 33.3834 31.3333 29.3333 31.3333V32V32.6667C34.1198 32.6667 38 28.7865 38 24H37.3333ZM29.3333 0V0.666667C33.3834 0.666667 36.6667 3.94991 36.6667 8H37.3333H38C38 3.21353 34.1198 -0.666667 29.3333 -0.666667V0ZM8 0V-0.666667C3.21353 -0.666667 -0.666667 3.21353 -0.666667 8H0H0.666667C0.666667 3.94991 3.94991 0.666667 8 0.666667V0Z" fill="black" fill-opacity="0.1" mask="url(#path-1-inside-1_123_2168)"/>
<path d="M17.333 15.333V19.333" stroke="#E7000B" stroke-width="1.33333" stroke-linecap="round" stroke-linejoin="round"/>
<path d="M20 15.333V19.333" stroke="#E7000B" stroke-width="1.33333" stroke-linecap="round" stroke-linejoin="round"/>
<path d="M23.3333 12V21.3333C23.3333 21.687 23.1929 22.0261 22.9428 22.2761C22.6928 22.5262 22.3536 22.6667 22 22.6667H15.3333C14.9797 22.6667 14.6406 22.5262 14.3905 22.2761C14.1405 22.0261 14 21.687 14 21.3333V12" stroke="#E7000B" stroke-width="1.33333" stroke-linecap="round" stroke-linejoin="round"/>
<path d="M12.6665 12H24.6665" stroke="#E7000B" stroke-width="1.33333" stroke-linecap="round" stroke-linejoin="round"/>
<path d="M16 11.9997V10.6663C16 10.3127 16.1405 9.97358 16.3905 9.72353C16.6406 9.47348 16.9797 9.33301 17.3333 9.33301H20C20.3536 9.33301 20.6928 9.47348 20.9428 9.72353C21.1929 9.97358 21.3333 10.3127 21.3333 10.6663V11.9997" stroke="#E7000B" stroke-width="1.33333" stroke-linecap="round" stroke-linejoin="round"/>
</svg>
