<svg width="20" height="20" viewBox="0 0 20 20" fill="none" xmlns="http://www.w3.org/2000/svg">
<path d="M7.50008 10.8337C7.96032 10.8337 8.33341 10.4606 8.33341 10.0003C8.33341 9.54009 7.96032 9.16699 7.50008 9.16699C7.03984 9.16699 6.66675 9.54009 6.66675 10.0003C6.66675 10.4606 7.03984 10.8337 7.50008 10.8337Z" stroke="#99A1AF" stroke-width="1.66667" stroke-linecap="round" stroke-linejoin="round"/>
<path d="M7.50008 4.99967C7.96032 4.99967 8.33341 4.62658 8.33341 4.16634C8.33341 3.7061 7.96032 3.33301 7.50008 3.33301C7.03984 3.33301 6.66675 3.7061 6.66675 4.16634C6.66675 4.62658 7.03984 4.99967 7.50008 4.99967Z" stroke="#99A1AF" stroke-width="1.66667" stroke-linecap="round" stroke-linejoin="round"/>
<path d="M7.50008 16.6667C7.96032 16.6667 8.33341 16.2936 8.33341 15.8333C8.33341 15.3731 7.96032 15 7.50008 15C7.03984 15 6.66675 15.3731 6.66675 15.8333C6.66675 16.2936 7.03984 16.6667 7.50008 16.6667Z" stroke="#99A1AF" stroke-width="1.66667" stroke-linecap="round" stroke-linejoin="round"/>
<path d="M12.5001 10.8337C12.9603 10.8337 13.3334 10.4606 13.3334 10.0003C13.3334 9.54009 12.9603 9.16699 12.5001 9.16699C12.0398 9.16699 11.6667 9.54009 11.6667 10.0003C11.6667 10.4606 12.0398 10.8337 12.5001 10.8337Z" stroke="#99A1AF" stroke-width="1.66667" stroke-linecap="round" stroke-linejoin="round"/>
<path d="M12.5001 4.99967C12.9603 4.99967 13.3334 4.62658 13.3334 4.16634C13.3334 3.7061 12.9603 3.33301 12.5001 3.33301C12.0398 3.33301 11.6667 3.7061 11.6667 4.16634C11.6667 4.62658 12.0398 4.99967 12.5001 4.99967Z" stroke="#99A1AF" stroke-width="1.66667" stroke-linecap="round" stroke-linejoin="round"/>
<path d="M12.5001 16.6667C12.9603 16.6667 13.3334 16.2936 13.3334 15.8333C13.3334 15.3731 12.9603 15 12.5001 15C12.0398 15 11.6667 15.3731 11.6667 15.8333C11.6667 16.2936 12.0398 16.6667 12.5001 16.6667Z" stroke="#99A1AF" stroke-width="1.66667" stroke-linecap="round" stroke-linejoin="round"/>
</svg>
