<svg width="48" height="48" viewBox="0 0 48 48" fill="none" xmlns="http://www.w3.org/2000/svg">
<path d="M32 25.9996L42.446 32.9636C42.5966 33.0638 42.7715 33.1213 42.9522 33.1299C43.1329 33.1385 43.3125 33.098 43.472 33.0126C43.6315 32.9273 43.7648 32.8002 43.8578 32.6451C43.9508 32.4899 43.9999 32.3124 44 32.1316V15.7396C44.0001 15.5636 43.9537 15.3907 43.8656 15.2384C43.7774 15.0862 43.6507 14.9598 43.4981 14.8722C43.3456 14.7845 43.1726 14.7387 42.9966 14.7393C42.8207 14.7399 42.648 14.7869 42.496 14.8756L32 20.9996" stroke="#99A1AF" stroke-width="4" stroke-linecap="round" stroke-linejoin="round"/>
<path d="M28 12H8C5.79086 12 4 13.7909 4 16V32C4 34.2091 5.79086 36 8 36H28C30.2091 36 32 34.2091 32 32V16C32 13.7909 30.2091 12 28 12Z" stroke="#99A1AF" stroke-width="4" stroke-linecap="round" stroke-linejoin="round"/>
</svg>
