<svg width="16" height="16" viewBox="0 0 16 16" fill="none" xmlns="http://www.w3.org/2000/svg">
<path d="M3.3335 3.33336C3.33343 3.09876 3.39526 2.86829 3.51275 2.66522C3.63024 2.46216 3.79924 2.29369 4.00266 2.17683C4.20609 2.05996 4.43675 1.99885 4.67136 1.99964C4.90596 2.00044 5.1362 2.06312 5.33883 2.18136L13.3368 6.8467C13.5387 6.96382 13.7062 7.13186 13.8228 7.33403C13.9393 7.5362 14.0008 7.76543 14.001 7.99879C14.0012 8.23215 13.9401 8.46148 13.8239 8.66385C13.7077 8.86623 13.5405 9.03456 13.3388 9.15203L5.33883 13.8187C5.1362 13.9369 4.90596 13.9996 4.67136 14.0004C4.43675 14.0012 4.20609 13.9401 4.00266 13.8232C3.79924 13.7064 3.63024 13.5379 3.51275 13.3348C3.39526 13.1318 3.33343 12.9013 3.3335 12.6667V3.33336Z" stroke="#99A1AF" stroke-width="1.33333" stroke-linecap="round" stroke-linejoin="round"/>
</svg>
