<svg width="32" height="32" viewBox="0 0 32 32" fill="none" xmlns="http://www.w3.org/2000/svg">
<path d="M0 10C0 4.47715 4.47715 0 10 0H22C27.5228 0 32 4.47715 32 10V22C32 27.5228 27.5228 32 22 32H10C4.47715 32 0 27.5228 0 22V10Z" fill="#1E2939"/>
<path d="M20 9.33301H18C17.116 9.33301 16.2681 9.6842 15.643 10.3093C15.0179 10.9344 14.6667 11.7823 14.6667 12.6663V14.6663H12.6667V17.333H14.6667V22.6663H17.3334V17.333H19.3334L20 14.6663H17.3334V12.6663C17.3334 12.4895 17.4036 12.32 17.5286 12.1949C17.6536 12.0699 17.8232 11.9997 18 11.9997H20V9.33301Z" stroke="white" stroke-width="1.33333" stroke-linecap="round" stroke-linejoin="round"/>
</svg>
