<svg width="32" height="32" viewBox="0 0 32 32" fill="none" xmlns="http://www.w3.org/2000/svg">
<path d="M0 10C0 4.47715 4.47715 0 10 0H22C27.5228 0 32 4.47715 32 10V22C32 27.5228 27.5228 32 22 32H10C4.47715 32 0 27.5228 0 22V10Z" fill="#1E2939"/>
<path d="M11.3333 11.3337C11.3332 11.0991 11.3951 10.8687 11.5126 10.6656C11.6301 10.4625 11.7991 10.2941 12.0025 10.1772C12.2059 10.0603 12.4366 9.99921 12.6712 10C12.9058 10.0008 13.136 10.0635 13.3386 10.1817L21.3366 14.8471C21.5385 14.9642 21.7061 15.1322 21.8226 15.3344C21.9392 15.5366 22.0006 15.7658 22.0008 15.9992C22.001 16.2325 21.94 16.4618 21.8238 16.6642C21.7076 16.8666 21.5403 17.0349 21.3386 17.1524L13.3386 21.8191C13.136 21.9373 12.9058 22 12.6712 22.0008C12.4366 22.0016 12.2059 21.9405 12.0025 21.8236C11.7991 21.7067 11.6301 21.5383 11.5126 21.3352C11.3951 21.1321 11.3332 20.9017 11.3333 20.6671V11.3337Z" stroke="white" stroke-width="1.33333" stroke-linecap="round" stroke-linejoin="round"/>
</svg>
