<svg width="32" height="32" viewBox="0 0 32 32" fill="none" xmlns="http://www.w3.org/2000/svg">
<path d="M0 10C0 4.47715 4.47715 0 10 0H22C27.5228 0 32 4.47715 32 10V22C32 27.5228 27.5228 32 22 32H10C4.47715 32 0 27.5228 0 22V10Z" fill="#1E2939"/>
<g clip-path="url(#clip0_79_807)">
<path d="M19.3333 9.33301H12.6666C10.8257 9.33301 9.33331 10.8254 9.33331 12.6663V19.333C9.33331 21.174 10.8257 22.6663 12.6666 22.6663H19.3333C21.1743 22.6663 22.6666 21.174 22.6666 19.333V12.6663C22.6666 10.8254 21.1743 9.33301 19.3333 9.33301Z" stroke="white" stroke-width="1.33333" stroke-linecap="round" stroke-linejoin="round"/>
<path d="M18.6667 15.5802C18.7489 16.135 18.6542 16.7017 18.3958 17.1995C18.1375 17.6974 17.7288 18.1011 17.2278 18.3533C16.7267 18.6055 16.159 18.6933 15.6052 18.6042C15.0514 18.515 14.5398 18.2536 14.1432 17.857C13.7466 17.4604 13.4852 16.9488 13.3961 16.395C13.3069 15.8412 13.3947 15.2735 13.6469 14.7725C13.8991 14.2714 14.3028 13.8627 14.8007 13.6044C15.2985 13.346 15.8652 13.2513 16.42 13.3335C16.986 13.4175 17.5099 13.6812 17.9145 14.0857C18.319 14.4903 18.5828 15.0143 18.6667 15.5802Z" stroke="white" stroke-width="1.33333" stroke-linecap="round" stroke-linejoin="round"/>
<path d="M19.6667 12.333H19.6734" stroke="white" stroke-width="1.33333" stroke-linecap="round" stroke-linejoin="round"/>
</g>
<defs>
<clipPath id="clip0_79_807">
<rect width="16" height="16" fill="white" transform="translate(8 8)"/>
</clipPath>
</defs>
</svg>
