<svg width="38" height="32" viewBox="0 0 38 32" fill="none" xmlns="http://www.w3.org/2000/svg">
<mask id="path-1-inside-1_113_844" fill="white">
<path d="M0 8C0 3.58172 3.58172 0 8 0H29.3333C33.7516 0 37.3333 3.58172 37.3333 8V24C37.3333 28.4183 33.7516 32 29.3333 32H8C3.58172 32 0 28.4183 0 24V8Z"/>
</mask>
<path d="M0 8C0 3.58172 3.58172 0 8 0H29.3333C33.7516 0 37.3333 3.58172 37.3333 8V24C37.3333 28.4183 33.7516 32 29.3333 32H8C3.58172 32 0 28.4183 0 24V8Z" fill="white"/>
<path d="M8 0V0.666667H29.3333V0V-0.666667H8V0ZM37.3333 8H36.6667V24H37.3333H38V8H37.3333ZM29.3333 32V31.3333H8V32V32.6667H29.3333V32ZM0 24H0.666667V8H0H-0.666667V24H0ZM8 32V31.3333C3.94991 31.3333 0.666667 28.0501 0.666667 24H0H-0.666667C-0.666667 28.7865 3.21353 32.6667 8 32.6667V32ZM37.3333 24H36.6667C36.6667 28.0501 33.3834 31.3333 29.3333 31.3333V32V32.6667C34.1198 32.6667 38 28.7865 38 24H37.3333ZM29.3333 0V0.666667C33.3834 0.666667 36.6667 3.94991 36.6667 8H37.3333H38C38 3.21353 34.1198 -0.666667 29.3333 -0.666667V0ZM8 0V-0.666667C3.21353 -0.666667 -0.666667 3.21353 -0.666667 8H0H0.666667C0.666667 3.94991 3.94991 0.666667 8 0.666667V0Z" fill="black" fill-opacity="0.1" mask="url(#path-1-inside-1_113_844)"/>
<g clip-path="url(#clip0_113_844)">
<path d="M24.7831 12.5413C25.1356 12.1889 25.3336 11.7109 25.3337 11.2125C25.3338 10.7141 25.1358 10.2361 24.7834 9.8836C24.4311 9.53112 23.9531 9.33307 23.4547 9.33301C22.9563 9.33295 22.4782 9.53088 22.1258 9.88326L13.2284 18.7826C13.0737 18.9369 12.9592 19.127 12.8951 19.3359L12.0144 22.2373C11.9972 22.2949 11.9959 22.3562 12.0107 22.4145C12.0254 22.4728 12.0557 22.5261 12.0983 22.5686C12.1409 22.6111 12.1942 22.6413 12.2526 22.656C12.3109 22.6707 12.3722 22.6693 12.4298 22.6519L15.3318 21.7719C15.5406 21.7084 15.7306 21.5947 15.8851 21.4406L24.7831 12.5413Z" stroke="#0A0A0A" stroke-width="1.33333" stroke-linecap="round" stroke-linejoin="round"/>
</g>
<defs>
<clipPath id="clip0_113_844">
<rect width="16" height="16" fill="white" transform="translate(10.667 8)"/>
</clipPath>
</defs>
</svg>
