<svg width="34" height="34" viewBox="0 0 34 34" fill="none" xmlns="http://www.w3.org/2000/svg">
<path d="M0 17C0 7.61116 7.61116 0 17 0C26.3888 0 34 7.61116 34 17C34 26.3888 26.3888 34 17 34C7.61116 34 0 26.3888 0 17Z" fill="#06B6D4"/>
<path d="M18.4977 11C18.7683 11 19.0339 11.0732 19.2663 11.2118C19.4987 11.3505 19.6892 11.5494 19.8177 11.7875L20.1823 12.4625C20.3108 12.7006 20.5013 12.8995 20.7337 13.0382C20.9661 13.1768 21.2317 13.25 21.5023 13.25H23C23.3978 13.25 23.7794 13.408 24.0607 13.6893C24.342 13.9706 24.5 14.3522 24.5 14.75V21.5C24.5 21.8978 24.342 22.2794 24.0607 22.5607C23.7794 22.842 23.3978 23 23 23H11C10.6022 23 10.2206 22.842 9.93934 22.5607C9.65804 22.2794 9.5 21.8978 9.5 21.5V14.75C9.5 14.3522 9.65804 13.9706 9.93934 13.6893C10.2206 13.408 10.6022 13.25 11 13.25H12.4978C12.7681 13.25 13.0334 13.177 13.2656 13.0386C13.4978 12.9003 13.6883 12.7017 13.817 12.464L14.1837 11.786C14.3124 11.5483 14.5029 11.3497 14.7352 11.2114C14.9674 11.073 15.2327 11 15.503 11H18.4977Z" stroke="white" stroke-width="1.5" stroke-linecap="round" stroke-linejoin="round"/>
<path d="M17 20C18.2426 20 19.25 18.9926 19.25 17.75C19.25 16.5074 18.2426 15.5 17 15.5C15.7574 15.5 14.75 16.5074 14.75 17.75C14.75 18.9926 15.7574 20 17 20Z" stroke="white" stroke-width="1.5" stroke-linecap="round" stroke-linejoin="round"/>
</svg>
