<svg width="36" height="36" viewBox="0 0 36 36" fill="none" xmlns="http://www.w3.org/2000/svg">
<path d="M16.3335 17.167V22.167" stroke="#E7000B" stroke-width="1.66667" stroke-linecap="round" stroke-linejoin="round"/>
<path d="M19.6665 17.167V22.167" stroke="#E7000B" stroke-width="1.66667" stroke-linecap="round" stroke-linejoin="round"/>
<path d="M23.8332 13V24.6667C23.8332 25.1087 23.6576 25.5326 23.345 25.8452C23.0324 26.1577 22.6085 26.3333 22.1665 26.3333H13.8332C13.3911 26.3333 12.9672 26.1577 12.6547 25.8452C12.3421 25.5326 12.1665 25.1087 12.1665 24.6667V13" stroke="#E7000B" stroke-width="1.66667" stroke-linecap="round" stroke-linejoin="round"/>
<path d="M10.5 13H25.5" stroke="#E7000B" stroke-width="1.66667" stroke-linecap="round" stroke-linejoin="round"/>
<path d="M14.6665 13.0003V11.3337C14.6665 10.8916 14.8421 10.4677 15.1547 10.1552C15.4672 9.84258 15.8911 9.66699 16.3332 9.66699H19.6665C20.1085 9.66699 20.5324 9.84258 20.845 10.1552C21.1576 10.4677 21.3332 10.8916 21.3332 11.3337V13.0003" stroke="#E7000B" stroke-width="1.66667" stroke-linecap="round" stroke-linejoin="round"/>
</svg>
