<svg width="32" height="32" viewBox="0 0 32 32" fill="none" xmlns="http://www.w3.org/2000/svg">
<path d="M0 16C0 7.16344 7.16344 0 16 0C24.8366 0 32 7.16344 32 16C32 24.8366 24.8366 32 16 32C7.16344 32 0 24.8366 0 16Z" fill="#1C398E"/>
<path d="M20.6669 22V20.6667C20.6669 19.9594 20.3859 19.2811 19.8858 18.781C19.3857 18.281 18.7074 18 18.0002 18H14.0002C13.2929 18 12.6146 18.281 12.1145 18.781C11.6144 19.2811 11.3335 19.9594 11.3335 20.6667V22" stroke="white" stroke-width="1.33333" stroke-linecap="round" stroke-linejoin="round"/>
<path d="M16.0002 15.3333C17.4729 15.3333 18.6669 14.1394 18.6669 12.6667C18.6669 11.1939 17.4729 10 16.0002 10C14.5274 10 13.3335 11.1939 13.3335 12.6667C13.3335 14.1394 14.5274 15.3333 16.0002 15.3333Z" stroke="white" stroke-width="1.33333" stroke-linecap="round" stroke-linejoin="round"/>
</svg>
