<svg width="36" height="36" viewBox="0 0 36 36" fill="none" xmlns="http://www.w3.org/2000/svg">
<path d="M0 8C0 3.58172 3.58172 0 8 0H28C32.4183 0 36 3.58172 36 8V28C36 32.4183 32.4183 36 28 36H8C3.58172 36 0 32.4183 0 28V8Z" fill="#F0F5FF"/>
<path d="M9.6665 15.5003C10.3295 15.5003 10.9654 15.7637 11.4343 16.2326C11.9031 16.7014 12.1665 17.3373 12.1665 18.0003C12.1665 18.6634 11.9031 19.2993 11.4343 19.7681C10.9654 20.2369 10.3295 20.5003 9.6665 20.5003V22.167C9.6665 22.609 9.8421 23.0329 10.1547 23.3455C10.4672 23.6581 10.8911 23.8337 11.3332 23.8337H24.6665C25.1085 23.8337 25.5325 23.6581 25.845 23.3455C26.1576 23.0329 26.3332 22.609 26.3332 22.167V20.5003C25.6701 20.5003 25.0342 20.2369 24.5654 19.7681C24.0966 19.2993 23.8332 18.6634 23.8332 18.0003C23.8332 17.3373 24.0966 16.7014 24.5654 16.2326C25.0342 15.7637 25.6701 15.5003 26.3332 15.5003V13.8337C26.3332 13.3916 26.1576 12.9677 25.845 12.6551C25.5325 12.3426 25.1085 12.167 24.6665 12.167H11.3332C10.8911 12.167 10.4672 12.3426 10.1547 12.6551C9.8421 12.9677 9.6665 13.3916 9.6665 13.8337V15.5003Z" stroke="#1C398E" stroke-width="1.66667" stroke-linecap="round" stroke-linejoin="round"/>
<path d="M18.8335 12.167V13.8337" stroke="#1C398E" stroke-width="1.66667" stroke-linecap="round" stroke-linejoin="round"/>
<path d="M18.8335 22.167V23.8337" stroke="#1C398E" stroke-width="1.66667" stroke-linecap="round" stroke-linejoin="round"/>
<path d="M18.8335 17.167V18.8337" stroke="#1C398E" stroke-width="1.66667" stroke-linecap="round" stroke-linejoin="round"/>
</svg>
