<svg width="20" height="20" viewBox="0 0 20 20" fill="none" xmlns="http://www.w3.org/2000/svg">
<path d="M5 18.3337V3.33366C5 2.89163 5.17559 2.46771 5.48816 2.15515C5.80072 1.84259 6.22464 1.66699 6.66667 1.66699H13.3333C13.7754 1.66699 14.1993 1.84259 14.5118 2.15515C14.8244 2.46771 15 2.89163 15 3.33366V18.3337H5Z" stroke="white" stroke-width="1.66667" stroke-linecap="round" stroke-linejoin="round"/>
<path d="M4.99984 10H3.33317C2.89114 10 2.46722 10.1756 2.15466 10.4882C1.8421 10.8007 1.6665 11.2246 1.6665 11.6667V16.6667C1.6665 17.1087 1.8421 17.5326 2.15466 17.8452C2.46722 18.1577 2.89114 18.3333 3.33317 18.3333H4.99984" stroke="white" stroke-width="1.66667" stroke-linecap="round" stroke-linejoin="round"/>
<path d="M15 7.5H16.6667C17.1087 7.5 17.5326 7.6756 17.8452 7.98816C18.1577 8.30072 18.3333 8.72464 18.3333 9.16667V16.6667C18.3333 17.1087 18.1577 17.5326 17.8452 17.8452C17.5326 18.1577 17.1087 18.3333 16.6667 18.3333H15" stroke="white" stroke-width="1.66667" stroke-linecap="round" stroke-linejoin="round"/>
<path d="M8.3335 5H11.6668" stroke="white" stroke-width="1.66667" stroke-linecap="round" stroke-linejoin="round"/>
<path d="M8.3335 8.33301H11.6668" stroke="white" stroke-width="1.66667" stroke-linecap="round" stroke-linejoin="round"/>
<path d="M8.3335 11.667H11.6668" stroke="white" stroke-width="1.66667" stroke-linecap="round" stroke-linejoin="round"/>
<path d="M8.3335 15H11.6668" stroke="white" stroke-width="1.66667" stroke-linecap="round" stroke-linejoin="round"/>
</svg>
