<svg width="16" height="16" viewBox="0 0 16 16" fill="none" xmlns="http://www.w3.org/2000/svg">
<path d="M6.84534 14C6.96237 14.2027 7.13068 14.371 7.33337 14.488C7.53605 14.605 7.76597 14.6666 8 14.6666C8.23404 14.6666 8.46396 14.605 8.66664 14.488C8.86933 14.371 9.03764 14.2027 9.15467 14" stroke="#0A0A0A" stroke-width="1.33333" stroke-linecap="round" stroke-linejoin="round"/>
<path d="M2.17467 10.217C2.08758 10.3125 2.0301 10.4312 2.00924 10.5587C1.98837 10.6862 2.00501 10.817 2.05714 10.9353C2.10926 11.0535 2.19462 11.154 2.30284 11.2247C2.41105 11.2953 2.53745 11.3329 2.66667 11.333H13.3333C13.4625 11.3331 13.589 11.2956 13.6972 11.2251C13.8055 11.1546 13.891 11.0542 13.9433 10.936C13.9955 10.8179 14.0123 10.6871 13.9916 10.5595C13.9709 10.432 13.9136 10.3132 13.8267 10.2177C12.94 9.30367 12 8.33234 12 5.33301C12 4.27214 11.5786 3.25473 10.8284 2.50458C10.0783 1.75444 9.06087 1.33301 8 1.33301C6.93914 1.33301 5.92172 1.75444 5.17157 2.50458C4.42143 3.25473 4 4.27214 4 5.33301C4 8.33234 3.05933 9.30367 2.17467 10.217Z" stroke="#0A0A0A" stroke-width="1.33333" stroke-linecap="round" stroke-linejoin="round"/>
</svg>
