<svg width="16" height="16" viewBox="0 0 16 16" fill="none" xmlns="http://www.w3.org/2000/svg">
<g clip-path="url(#clip0_79_760)">
<path d="M5.33335 14.6663C5.70154 14.6663 6.00002 14.3679 6.00002 13.9997C6.00002 13.6315 5.70154 13.333 5.33335 13.333C4.96516 13.333 4.66669 13.6315 4.66669 13.9997C4.66669 14.3679 4.96516 14.6663 5.33335 14.6663Z" stroke="#0A0A0A" stroke-width="1.33333" stroke-linecap="round" stroke-linejoin="round"/>
<path d="M12.6667 14.6663C13.0349 14.6663 13.3333 14.3679 13.3333 13.9997C13.3333 13.6315 13.0349 13.333 12.6667 13.333C12.2985 13.333 12 13.6315 12 13.9997C12 14.3679 12.2985 14.6663 12.6667 14.6663Z" stroke="#0A0A0A" stroke-width="1.33333" stroke-linecap="round" stroke-linejoin="round"/>
<path d="M1.36664 1.36621H2.69997L4.4733 9.64621C4.53836 9.94945 4.70709 10.2205 4.95045 10.4128C5.19381 10.605 5.49658 10.7064 5.80664 10.6995H12.3266C12.6301 10.6991 12.9243 10.5951 13.1607 10.4048C13.397 10.2145 13.5614 9.94923 13.6266 9.65288L14.7266 4.69954H3.4133" stroke="#0A0A0A" stroke-width="1.33333" stroke-linecap="round" stroke-linejoin="round"/>
</g>
<defs>
<clipPath id="clip0_79_760">
<rect width="16" height="16" fill="white"/>
</clipPath>
</defs>
</svg>
