<svg width="48" height="48" viewBox="0 0 48 48" fill="none" xmlns="http://www.w3.org/2000/svg">
<path d="M23.0502 4.58979C23.1378 4.41271 23.2732 4.26365 23.4411 4.15944C23.6089 4.05522 23.8026 4 24.0002 4C24.1978 4 24.3914 4.05522 24.5593 4.15944C24.7271 4.26365 24.8625 4.41271 24.9502 4.58979L29.5702 13.9478C29.8745 14.5637 30.3238 15.0966 30.8794 15.5007C31.4351 15.9048 32.0804 16.168 32.7602 16.2678L43.0922 17.7798C43.288 17.8082 43.4719 17.8907 43.6232 18.0182C43.7744 18.1456 43.887 18.3129 43.9482 18.501C44.0094 18.6891 44.0167 18.8906 43.9694 19.0827C43.922 19.2747 43.8218 19.4497 43.6802 19.5878L36.2082 26.8638C35.7154 27.344 35.3467 27.9368 35.1339 28.591C34.921 29.2453 34.8703 29.9416 34.9862 30.6198L36.7502 40.8998C36.7847 41.0955 36.7636 41.2969 36.6892 41.4812C36.6148 41.6654 36.49 41.825 36.3293 41.9418C36.1685 42.0586 35.9781 42.1278 35.7799 42.1416C35.5817 42.1554 35.3836 42.1132 35.2082 42.0198L25.9722 37.1638C25.3636 36.8442 24.6865 36.6773 23.9992 36.6773C23.3118 36.6773 22.6347 36.8442 22.0262 37.1638L12.7922 42.0198C12.6168 42.1126 12.419 42.1544 12.2211 42.1403C12.0232 42.1262 11.8332 42.0569 11.6728 41.9402C11.5123 41.8235 11.3878 41.6642 11.3135 41.4802C11.2391 41.2963 11.2179 41.0952 11.2522 40.8998L13.0142 30.6218C13.1306 29.9433 13.0801 29.2466 12.8673 28.5919C12.6544 27.9372 12.2854 27.3441 11.7922 26.8638L4.32018 19.5898C4.17737 19.4519 4.07617 19.2766 4.02811 19.0839C3.98004 18.8913 3.98706 18.689 4.04834 18.5002C4.10962 18.3113 4.22272 18.1435 4.37473 18.0158C4.52675 17.888 4.71159 17.8056 4.90818 17.7778L15.2382 16.2678C15.9187 16.1688 16.565 15.9059 17.1213 15.5018C17.6777 15.0976 18.1276 14.5643 18.4322 13.9478L23.0502 4.58979Z" fill="#FDC700" stroke="#FDC700" stroke-width="1.33333" stroke-linecap="round" stroke-linejoin="round"/>
</svg>
