<svg width="20" height="20" viewBox="0 0 20 20" fill="none" xmlns="http://www.w3.org/2000/svg">
<path d="M12.8973 10.7412L14.1598 17.8462C14.1739 17.9299 14.1622 18.0159 14.1261 18.0927C14.0901 18.1695 14.0315 18.2335 13.9581 18.276C13.8847 18.3186 13.8 18.3378 13.7155 18.331C13.6309 18.3241 13.5504 18.2917 13.4848 18.2379L10.5015 15.9987C10.3574 15.8911 10.1825 15.833 10.0027 15.833C9.82294 15.833 9.64798 15.8911 9.50396 15.9987L6.51563 18.237C6.45006 18.2907 6.36968 18.3232 6.28521 18.33C6.20073 18.3368 6.11619 18.3177 6.04285 18.2753C5.9695 18.2328 5.91086 18.169 5.87473 18.0923C5.83859 18.0157 5.8267 17.9298 5.84063 17.8462L7.10229 10.7412" stroke="#F59E0B" stroke-width="1.66667" stroke-linecap="round" stroke-linejoin="round"/>
<path d="M10 11.667C12.7614 11.667 15 9.42842 15 6.66699C15 3.90557 12.7614 1.66699 10 1.66699C7.23858 1.66699 5 3.90557 5 6.66699C5 9.42842 7.23858 11.667 10 11.667Z" stroke="#F59E0B" stroke-width="1.66667" stroke-linecap="round" stroke-linejoin="round"/>
</svg>
