<svg width="20" height="20" viewBox="0 0 20 20" fill="none" xmlns="http://www.w3.org/2000/svg">
<path d="M16.6667 6.66699H3.33333C2.8731 6.66699 2.5 7.04009 2.5 7.50033V9.16699C2.5 9.62723 2.8731 10.0003 3.33333 10.0003H16.6667C17.1269 10.0003 17.5 9.62723 17.5 9.16699V7.50033C17.5 7.04009 17.1269 6.66699 16.6667 6.66699Z" stroke="#EC4899" stroke-width="1.66667" stroke-linecap="round" stroke-linejoin="round"/>
<path d="M10 6.66699V17.5003" stroke="#EC4899" stroke-width="1.66667" stroke-linecap="round" stroke-linejoin="round"/>
<path d="M15.8337 10V15.8333C15.8337 16.2754 15.6581 16.6993 15.3455 17.0118C15.0329 17.3244 14.609 17.5 14.167 17.5H5.83366C5.39163 17.5 4.96771 17.3244 4.65515 17.0118C4.34259 16.6993 4.16699 16.2754 4.16699 15.8333V10" stroke="#EC4899" stroke-width="1.66667" stroke-linecap="round" stroke-linejoin="round"/>
<path d="M6.25033 6.66703C5.69779 6.66703 5.16789 6.44754 4.77719 6.05684C4.38649 5.66614 4.16699 5.13623 4.16699 4.5837C4.16699 4.03116 4.38649 3.50126 4.77719 3.11056C5.16789 2.71986 5.69779 2.50036 6.25033 2.50036C7.05423 2.48636 7.84201 2.87641 8.51094 3.61966C9.17986 4.36292 9.69889 5.42487 10.0003 6.66703C10.3018 5.42487 10.8208 4.36292 11.4897 3.61966C12.1586 2.87641 12.9464 2.48636 13.7503 2.50036C14.3029 2.50036 14.8328 2.71986 15.2235 3.11056C15.6142 3.50126 15.8337 4.03116 15.8337 4.5837C15.8337 5.13623 15.6142 5.66614 15.2235 6.05684C14.8328 6.44754 14.3029 6.66703 13.7503 6.66703" stroke="#EC4899" stroke-width="1.66667" stroke-linecap="round" stroke-linejoin="round"/>
</svg>
