<svg width="32" height="32" viewBox="0 0 32 32" fill="none" xmlns="http://www.w3.org/2000/svg">
<path d="M0 10C0 4.47715 4.47715 0 10 0H22C27.5228 0 32 4.47715 32 10V22C32 27.5228 27.5228 32 22 32H10C4.47715 32 0 27.5228 0 22V10Z" fill="#1E2939"/>
<path d="M11.3333 11.3335C11.3332 11.0989 11.3951 10.8684 11.5126 10.6653C11.6301 10.4623 11.7991 10.2938 12.0025 10.1769C12.2059 10.0601 12.4366 9.99897 12.6712 9.99976C12.9058 10.0006 13.136 10.0632 13.3386 10.1815L21.3366 14.8468C21.5385 14.9639 21.7061 15.132 21.8226 15.3342C21.9392 15.5363 22.0006 15.7655 22.0008 15.9989C22.001 16.2323 21.94 16.4616 21.8238 16.664C21.7076 16.8663 21.5403 17.0347 21.3386 17.1522L13.3386 21.8188C13.136 21.9371 12.9058 21.9997 12.6712 22.0005C12.4366 22.0013 12.2059 21.9402 12.0025 21.8234C11.7991 21.7065 11.6301 21.538 11.5126 21.335C11.3951 21.1319 11.3332 20.9014 11.3333 20.6668V11.3335Z" stroke="white" stroke-width="1.33333" stroke-linecap="round" stroke-linejoin="round"/>
</svg>
