<svg width="32" height="32" viewBox="0 0 32 32" fill="none" xmlns="http://www.w3.org/2000/svg">
<path d="M0 10C0 4.47715 4.47715 0 10 0H22C27.5228 0 32 4.47715 32 10V22C32 27.5228 27.5228 32 22 32H10C4.47715 32 0 27.5228 0 22V10Z" fill="#1E2939"/>
<path d="M19.3333 9.33325H12.6666C10.8257 9.33325 9.33331 10.8256 9.33331 12.6666V19.3333C9.33331 21.1742 10.8257 22.6666 12.6666 22.6666H19.3333C21.1743 22.6666 22.6666 21.1742 22.6666 19.3333V12.6666C22.6666 10.8256 21.1743 9.33325 19.3333 9.33325Z" stroke="white" stroke-width="1.33333" stroke-linecap="round" stroke-linejoin="round"/>
<path d="M18.6667 15.58C18.7489 16.1348 18.6542 16.7014 18.3958 17.1993C18.1375 17.6972 17.7288 18.1009 17.2278 18.3531C16.7267 18.6052 16.159 18.693 15.6052 18.6039C15.0514 18.5148 14.5398 18.2533 14.1432 17.8567C13.7466 17.4601 13.4852 16.9485 13.3961 16.3948C13.3069 15.841 13.3947 15.2732 13.6469 14.7722C13.8991 14.2712 14.3028 13.8625 14.8007 13.6041C15.2985 13.3458 15.8652 13.251 16.42 13.3333C16.986 13.4172 17.5099 13.6809 17.9145 14.0855C18.319 14.4901 18.5828 15.014 18.6667 15.58Z" stroke="white" stroke-width="1.33333" stroke-linecap="round" stroke-linejoin="round"/>
<path d="M19.6667 12.3333H19.6734" stroke="white" stroke-width="1.33333" stroke-linecap="round" stroke-linejoin="round"/>
</svg>
