<svg width="32" height="32" viewBox="0 0 32 32" fill="none" xmlns="http://www.w3.org/2000/svg">
<path d="M0 10C0 4.47715 4.47715 0 10 0H22C27.5228 0 32 4.47715 32 10V22C32 27.5228 27.5228 32 22 32H10C4.47715 32 0 27.5228 0 22V10Z" fill="#1E2939"/>
<path d="M20 9.33325H18C17.116 9.33325 16.2681 9.68444 15.643 10.3096C15.0179 10.9347 14.6667 11.7825 14.6667 12.6666V14.6666H12.6667V17.3333H14.6667V22.6666H17.3334V17.3333H19.3334L20 14.6666H17.3334V12.6666C17.3334 12.4898 17.4036 12.3202 17.5286 12.1952C17.6536 12.0702 17.8232 11.9999 18 11.9999H20V9.33325Z" stroke="white" stroke-width="1.33333" stroke-linecap="round" stroke-linejoin="round"/>
</svg>
